<svg version="1.1" xmlns="http://www.w3.org/2000/svg" viewBox="0 0 82.081718949692 102.70658351475504" width="82.081718949692" height="102.70658351475504">
  <!-- svg-source:excalidraw -->
  
  <defs>
    <style class="style-fonts">
      
    </style>
    
  </defs>
  <g stroke-linecap="round"><g transform="translate(14.926181941087634 18.754485962799663) rotate(0 27.857142857142208 32.14285714285688)" fill-rule="evenodd"><path d="M1.6 -1.26 C3.33 -0.33, 7.46 7.13, 10.32 6.42 C13.18 5.71, 15.05 -6.2, 18.74 -5.53 C22.42 -4.85, 28.29 10.74, 32.44 10.46 C36.58 10.18, 41.19 -13.79, 43.59 -7.21 C45.99 -0.63, 44.91 37.47, 46.86 49.96 C48.82 62.44, 63.23 63.97, 55.3 67.69 C47.37 71.41, 8.27 83.26, -0.72 72.26 C-9.71 61.27, 1.6 13.73, 1.39 1.73" stroke="none" stroke-width="0" fill="#ffffff" fill-rule="evenodd"></path><path d="M0.58 0.62 C2.2 2.16, 6.25 8.93, 9.22 8.16 C12.2 7.4, 15.11 -4.08, 18.44 -3.97 C21.77 -3.86, 25.23 8.94, 29.19 8.82 C33.15 8.7, 39.27 -11.67, 42.19 -4.69 C45.12 2.3, 44.63 38.94, 46.72 50.72 C48.81 62.5, 62.64 62.94, 54.74 66.01 C46.85 69.07, 8.67 80.27, -0.64 69.11 C-9.95 57.95, -1.22 10.55, -1.11 -0.95 M-0.58 -0.1 C0.99 1.7, 5.59 9.88, 8.62 9.49 C11.65 9.09, 14.21 -2.58, 17.6 -2.48 C21 -2.39, 24.6 10.88, 29.01 10.06 C33.41 9.23, 41.37 -14.57, 44.04 -7.42 C46.7 -0.26, 43.2 40.93, 45 52.97 C46.81 65.01, 62.1 62.26, 54.88 64.81 C47.65 67.37, 10.76 78.96, 1.66 68.3 C-7.44 57.63, 0.44 12.26, 0.3 0.83" stroke="#1e1e1e" stroke-width="4" fill="none"></path></g></g><mask></mask><g stroke-linecap="round"><g transform="translate(20.64046765537205 43.04020024851343) rotate(0 16.42857142857156 -2.142857142856883)"><path d="M0.3 -0.19 C5.72 -0.92, 27.43 -3.48, 32.8 -4.14 M-0.21 -0.76 C5.11 -1.69, 26.7 -4.57, 32.33 -5.03" stroke="#1e1e1e" stroke-width="4" fill="none"></path></g></g><mask></mask><g stroke-linecap="round"><g transform="translate(20.062458415022775 52.79212331526105) rotate(0 16.42857142857156 -2.142857142856883)"><path d="M-0.49 -0.07 C5.06 -0.83, 27.36 -3.39, 33.01 -4.17 M0.25 -0.58 C5.77 -1.54, 27.14 -4.45, 32.65 -5.08" stroke="#1e1e1e" stroke-width="4" fill="none"></path></g></g><mask></mask></svg>